<svg xmlns="http://www.w3.org/2000/svg" viewBox="0 0 512 512"><!-- Original hand-authored sun icon for the Heatwave brutal round. --><g fill="#000000"><circle cx="256" cy="256" r="110"/><path d="M256 8 306 150 206 150Z"/><path d="M256 8 306 150 206 150Z" transform="rotate(45 256 256)"/><path d="M256 8 306 150 206 150Z" transform="rotate(90 256 256)"/><path d="M256 8 306 150 206 150Z" transform="rotate(135 256 256)"/><path d="M256 8 306 150 206 150Z" transform="rotate(180 256 256)"/><path d="M256 8 306 150 206 150Z" transform="rotate(225 256 256)"/><path d="M256 8 306 150 206 150Z" transform="rotate(270 256 256)"/><path d="M256 8 306 150 206 150Z" transform="rotate(315 256 256)"/></g></svg>
